<svg width="370" height="37" viewBox="0 0 370 37" fill="none" xmlns="http://www.w3.org/2000/svg">
<path d="M8.65 0.899999V36H0.1V0.899999H8.65ZM56.8418 36H48.2918L33.9918 14.35V36H25.4418V0.899999H33.9918L48.2918 22.65V0.899999H56.8418V36ZM106.585 0.899999L94.1352 36H83.4352L70.9852 0.899999H80.0852L88.7852 27.4L97.5352 0.899999H106.585ZM129.304 7.75V14.85H140.754V21.45H129.304V29.15H142.254V36H120.754V0.899999H142.254V7.75H129.304ZM189.801 36H181.251L166.951 14.35V36H158.401V0.899999H166.951L181.251 22.65V0.899999H189.801V36ZM231.844 0.899999V7.75H222.544V36H213.994V7.75H204.694V0.899999H231.844ZM263.331 36.35C260.031 36.35 256.998 35.5833 254.231 34.05C251.498 32.5167 249.314 30.3833 247.681 27.65C246.081 24.8833 245.281 21.7833 245.281 18.35C245.281 14.9167 246.081 11.8333 247.681 9.1C249.314 6.36667 251.498 4.23333 254.231 2.7C256.998 1.16667 260.031 0.399999 263.331 0.399999C266.631 0.399999 269.648 1.16667 272.381 2.7C275.148 4.23333 277.314 6.36667 278.881 9.1C280.481 11.8333 281.281 14.9167 281.281 18.35C281.281 21.7833 280.481 24.8833 278.881 27.65C277.281 30.3833 275.114 32.5167 272.381 34.05C269.648 35.5833 266.631 36.35 263.331 36.35ZM263.331 28.55C266.131 28.55 268.364 27.6167 270.031 25.75C271.731 23.8833 272.581 21.4167 272.581 18.35C272.581 15.25 271.731 12.7833 270.031 10.95C268.364 9.08333 266.131 8.15 263.331 8.15C260.498 8.15 258.231 9.06666 256.531 10.9C254.864 12.7333 254.031 15.2167 254.031 18.35C254.031 21.45 254.864 23.9333 256.531 25.8C258.231 27.6333 260.498 28.55 263.331 28.55ZM314.533 36L307.233 22.75H305.183V36H296.633V0.899999H310.983C313.75 0.899999 316.1 1.38333 318.033 2.35C320 3.31666 321.467 4.65 322.433 6.35C323.4 8.01666 323.883 9.88333 323.883 11.95C323.883 14.2833 323.217 16.3667 321.883 18.2C320.583 20.0333 318.65 21.3333 316.083 22.1L324.183 36H314.533ZM305.183 16.7H310.483C312.05 16.7 313.217 16.3167 313.983 15.55C314.783 14.7833 315.183 13.7 315.183 12.3C315.183 10.9667 314.783 9.91667 313.983 9.15C313.217 8.38333 312.05 8 310.483 8H305.183V16.7ZM369.946 0.899999L357.796 24.4V36H349.246V24.4L337.096 0.899999H346.796L353.596 15.6L360.346 0.899999H369.946Z" fill="white"/>
</svg>
